#!OML:ASF H:\MichaelJackson\Top Level 1\Subject 1\Session 1\male.ASF
:FULLY-SPECIFIED
:DEGREES
480
root -1.3515 16.4859 20.3599 -380.167 74.7634 -33.3849
lowerback 5.88565 -4.6988 -5.19722
upperback 0.956151 -6.53271 1.57731
thorax -1.53008 -3.23783 4.95379
lowerneck -3.6341 -15.0231 -7.42901
upperneck 12.6309 -21.7031 13.9414
head 6.81229 -10.1026 3.67997
rclavicle -4.6118e-014 2.54444e-014
rhumerus -22.3347 10.9662 -46.057
rradius 62.8083
rwrist 35.0123
rhand -49.1698 -12.302
rfingers 7.12502
rthumb -21.7921 -41.0952
lclavicle -4.6118e-014 2.54444e-014
lhumerus -30.6705 -19.0747 92.3558
lradius 38.8572
lwrist 9.79764
lhand -15.4823 6.59744
lfingers 7.12502
lthumb 10.6995 36.305
rfemur -33.1544 -4.75421 6.51594
rtibia 58.1088
rfoot 10.7521 1.43095
rtoes 2.57913
lfemur -34.9088 27.7416 -13.0948
ltibia 51.2943
lfoot -30.7159 -7.65312
ltoes 2.28736
481
root -1.44172 16.4702 20.4328 -380.405 74.4412 -33.5981
lowerback 5.83273 -4.63438 -4.99734
upperback 0.9656 -6.4301 1.675
thorax -1.51405 -3.18851 4.93424
lowerneck -3.56466 -15.0603 -7.52288
upperneck 12.666 -21.7393 13.8531
head 6.81532 -10.1316 3.66564
rclavicle 6.71892e-014 -9.54166e-015
rhumerus -22.5023 10.0377 -46.3246
rradius 61.0795
rwrist 34.2145
rhand -48.6222 -12.7062
rfingers 7.12502
rthumb -21.2662 -41.5596
lclavicle 6.71892e-014 -9.54166e-015
lhumerus -30.7424 -18.9099 92.2977
lradius 38.7946
lwrist 9.65387
lhand -15.4517 6.554
lfingers 7.12502
lthumb 10.729 36.26
rfemur -32.1004 -5.41674 6.20887
rtibia 57.0324
rfoot 11.5373 -1.08322
rtoes 7.28671
lfemur -35.3179 28.399 -12.6747
ltibia 51.5544
lfoot -30.4817 -7.91218
ltoes 1.8706
482
root -1.52987 16.453 20.5078 -380.686 74.1673 -33.8441
lowerback 5.77094 -4.58646 -4.78797
upperback 0.968546 -6.34904 1.76555
thorax -1.49881 -3.14972 4.9025
lowerneck -3.47654 -15.0977 -7.60925
upperneck 12.6933 -21.7736 13.751
head 6.80995 -10.1615 3.64825
rclavicle -1.70955e-014 1.90833e-014
rhumerus -22.7116 9.0634 -46.634
rradius 59.3957
rwrist 33.1507
rhand -47.9257 -13.3417
rfingers 7.12502
rthumb -20.597 -42.269
lclavicle -1.70955e-014 1.90833e-014
lhumerus -30.8283 -18.7078 92.2324
lradius 38.7014
lwrist 9.44966
lhand -15.4423 6.55475
lfingers 7.12502
lthumb 10.7382 36.2603
rfemur -30.9806 -5.97982 5.88437
rtibia 55.9297
rfoot 12.389 -3.91787
rtoes 12.889
lfemur -35.6987 29.031 -12.2554
ltibia 51.7854
lfoot -30.2599 -8.18112
ltoes 1.40616
483
root -1.61613 16.4347 20.5853 -380.905 73.957 -34.0187
lowerback 5.6906 -4.5507 -4.59952
upperback 0.965533 -6.28552 1.83553
thorax -1.47715 -3.1196 4.86035
lowerneck -3.36451 -15.1388 -7.68525
upperneck 12.7036 -21.813 13.6533
head 6.79509 -10.195 3.63263
rclavicle -3.02153e-014 1.59028e-015
rhumerus -22.9823 8.05599 -46.9835
rradius 57.7874
rwrist 31.7855
rhand -47.0634 -14.2497
rfingers 7.12502
rthumb -19.7682 -43.2645
lclavicle -3.02153e-014 1.59028e-015
lhumerus -30.9143 -18.4859 92.1565
lradius 38.5649
lwrist 9.18854
lhand -15.4699 6.57939
lfingers 7.12502
lthumb 10.7115 36.2863
rfemur -29.7912 -6.4255 5.50097
rtibia 54.7924
rfoot 13.1903 -7.02612
rtoes 18.8691
lfemur -36.0524 29.6036 -11.8696
ltibia 51.9815
lfoot -30.044 -8.44448
ltoes 0.932303
484
root -1.70107 16.4148 20.6659 -381.025 73.8217 -34.0855
lowerback 5.59495 -4.53188 -4.4581
upperback 0.956449 -6.24765 1.88714
thorax -1.44711 -3.10222 4.82521
lowerneck -3.23824 -15.1798 -7.7585
upperneck 12.6966 -21.8531 13.5695
head 6.77371 -10.2293 3.62234
rclavicle -8.42847e-014 -1.59028e-015
rhumerus -23.3081 7.02859 -47.3652
rradius 56.2698
rwrist 30.1217
rhand -46.0475 -15.4006
rfingers 7.12502
rthumb -18.7914 -44.5129
lclavicle -8.42847e-014 -1.59028e-015
lhumerus -30.9869 -18.2128 92.0602
lradius 38.3749
lwrist 8.85243
lhand -15.5237 6.56791
lfingers 7.12502
lthumb 10.6596 36.2775
rfemur -28.5307 -6.75475 5.04409
rtibia 53.6233
rfoot 13.8185 -10.3151
rtoes 24.6085
lfemur -36.3878 30.0992 -11.5339
ltibia 52.1472
lfoot -29.8329 -8.67221
ltoes 0.39124
